<?xml version="1.0" standalone="no"?>
<!DOCTYPE svg PUBLIC "-//W3C//DTD SVG 20010904//EN"
 "http://www.w3.org/TR/2001/REC-SVG-20010904/DTD/svg10.dtd">
<svg version="1.0" xmlns="http://www.w3.org/2000/svg"
 width="192.000000pt" height="192.000000pt" viewBox="0 0 192.000000 192.000000"
 preserveAspectRatio="xMidYMid meet">
<metadata>
Created by potrace 1.11, written by Peter Selinger 2001-2013
</metadata>
<g transform="translate(0.000000,192.000000) scale(0.100000,-0.100000)"
fill="#000000" stroke="none">
<path d="M850 1855 c-323 -56 -590 -288 -701 -609 l-28 -81 -60 -5 -60 -5 109
-180 c60 -99 112 -181 117 -182 4 -2 17 12 29 30 50 77 204 327 204 332 0 3
-25 5 -55 5 -67 0 -68 4 -19 103 75 149 185 255 339 328 98 45 173 62 285 62
200 0 380 -78 511 -220 71 -78 114 -152 152 -260 27 -80 30 -100 30 -213 1
-114 -2 -133 -30 -213 -85 -241 -265 -408 -503 -464 -79 -18 -223 -20 -305 -3
-88 17 -229 89 -310 157 l-71 60 -77 -71 -78 -71 53 -51 c95 -90 180 -144 305
-192 423 -163 894 9 1121 409 148 261 149 604 4 869 -190 348 -572 532 -962
465z"/>
<path d="M630 1059 c-13 -6 -33 -17 -42 -26 -17 -15 -18 -15 -18 5 0 18 -6 22
-30 22 l-31 0 3 -157 3 -158 28 -3 27 -3 0 106 c0 104 1 107 29 136 25 24 38
29 79 29 45 0 50 2 54 24 7 36 -43 48 -102 25z"/>
<path d="M916 1045 c-34 -23 -36 -23 -36 -5 0 15 -7 20 -25 20 l-25 0 0 -160
0 -160 30 0 30 0 0 119 c0 117 1 120 26 140 33 26 65 27 93 4 19 -16 21 -30
23 -138 l3 -120 28 -3 27 -3 0 125 c0 138 -9 170 -51 192 -41 21 -81 17 -123
-11z"/>
<path d="M1276 1045 c-34 -23 -36 -23 -36 -5 0 15 -7 20 -25 20 l-25 0 0 -160
0 -160 30 0 30 0 0 119 c0 117 1 120 26 140 33 26 65 27 93 4 19 -16 21 -30
23 -138 l3 -120 28 -3 27 -3 0 125 c0 138 -9 170 -51 192 -41 21 -81 17 -123
-11z"/>
</g>
</svg>
